<?xml version="1.0" encoding="UTF-8" standalone="no"?>
<!--
************* Copyright (c) 2017 Pareto Softare, LLC DBA Simplemaps.com *******************		
************* Free for Commercial Use, full terms at  http://simplemaps.com/resources/svg-license ************
************* Attribution is appreciated! http://simplemaps.com ***************************
-->

<svg
   xmlns:dc="http://purl.org/dc/elements/1.1/"
   xmlns:cc="http://creativecommons.org/ns#"
   xmlns:rdf="http://www.w3.org/1999/02/22-rdf-syntax-ns#"
   xmlns:svg="http://www.w3.org/2000/svg"
   xmlns="http://www.w3.org/2000/svg"
   xmlns:sodipodi="http://sodipodi.sourceforge.net/DTD/sodipodi-0.dtd"
   xmlns:inkscape="http://www.inkscape.org/namespaces/inkscape"
   baseprofile="tiny"
   height="62.5"
   version="1.2"
   viewbox="0 0 1000 683"
   width="52.799995"
   id="svg2"
   inkscape:version="0.91 r13725"
   sodipodi:docname="nl.svg"
   style="fill:#7c7c7c;stroke:#ffffff;stroke-width:2;stroke-linecap:round;stroke-linejoin:round">
  <metadata
     id="metadata27">
    <rdf:RDF>
      <cc:Work
         rdf:about="">
        <dc:format>image/svg+xml</dc:format>
        <dc:type
           rdf:resource="http://purl.org/dc/dcmitype/StillImage" />
        <dc:title></dc:title>
      </cc:Work>
    </rdf:RDF>
  </metadata>
  <defs
     id="defs25" />
  <sodipodi:namedview
     pagecolor="#ffffff"
     bordercolor="#666666"
     borderopacity="1"
     objecttolerance="10"
     gridtolerance="10"
     guidetolerance="10"
     inkscape:pageopacity="0"
     inkscape:pageshadow="2"
     inkscape:window-width="1366"
     inkscape:window-height="703"
     id="namedview23"
     showgrid="false"
     fit-margin-top="0"
     fit-margin-left="0"
     fit-margin-right="0"
     fit-margin-bottom="0"
     inkscape:zoom="0.34553441"
     inkscape:cx="-447.2"
     inkscape:cy="-279"
     inkscape:window-x="0"
     inkscape:window-y="24"
     inkscape:window-maximized="1"
     inkscape:current-layer="svg2" />
  <path
     d="m 43.799996,1.5 -0.1,0.1 -0.2,-0.2 0,-0.1 0.2,-0.1 0.3,0 -0.1,0.1 -0.1,0.2 z"
     id="NLD99"
     name=""
     inkscape:connector-curvature="0" />
  <path
     d="m 34.199996,40.2 0.2,0.1 0,0.3 0.1,0.2 0.2,0.2 0.5,0 0.3,0.2 0.1,0.8 0.2,0.2 -0.1,0.2 0.1,0.1 0.1,0.1 0.2,0.1 0.2,0.4 0.1,0.2 0.2,0.6 0,0.2 0,0.2 -0.2,0.2 -0.3,-0.3 -0.1,0 -0.7,0.2 -0.3,0.1 -0.2,0 -0.5,-0.2 -0.5,0 0.2,1.3 0.3,1.2 0.5,0.7 0.3,0.6 -0.8,0.7 -0.4,0.1 -0.9,0.3 -1.3,0.4 -0.3,0.4 -0.1,0.1 -0.2,0.4 -0.1,0.7 -0.1,0.2 -0.1,0.1 -0.1,0 -0.1,0 -0.3,0.1 -0.2,0.1 -0.1,-0.1 -0.1,-0.5 -0.1,-0.4 -0.2,-0.3 -0.3,-0.2 -0.3,0 -0.3,0.1 -0.5,0.4 -0.3,0.1 -1.5,-0.1 -0.5,0.2 -0.3,-0.1 0,-0.7 -0.2,-0.3 -0.3,-0.1 -0.5,0.1 -0.2,-0.1 -0.1,-0.2 -0.1,-0.5 -0.1,-0.1 -0.4,-0.5 -0.1,-0.2 0,-0.5 0.2,-0.3 0,-0.4 -0.2,-0.5 -0.4,-0.3 -0.1,0 -0.2,0 0,0.2 -0.1,0.2 -0.1,0.2 -0.2,0.4 -0.3,0.4 -0.3,0.3 -0.3,0.1 -0.5,-0.2 -0.3,-0.1 -0.9,0 -0.3,-0.2 0.1,-0.2 0.2,0 0.5,0.2 -0.1,-0.3 0.1,-0.4 0.1,-0.3 0,-0.3 -0.2,-0.2 -0.2,-0.1 -0.2,-0.1 -0.2,0 -0.5,0.2 -1,1.3 -0.1,0.1 -0.2,0 -0.2,0 -0.4,-0.1 -0.4,0.1 -0.2,0 -0.2,-0.2 0,-0.2 0.1,-0.3 0,-0.3 -0.1,-0.2 -0.1,0 -0.4,0 -0.7,0.3 -0.7,0.4 0.1,0.2 0,0.1 -0.1,0.2 0,0.2 0.1,0.2 0.3,0.4 0.1,0.2 -0.1,0.3 -0.2,0.2 -0.7,-0.1 -0.2,-0.1 -0.5,-0.2 -0.1,0 0,-0.2 -0.1,-0.1 -0.1,-0.1 0,-0.4 -0.1,-0.3 0.1,-0.1 0,-0.1 0,-0.3 0.2,-0.1 0.2,-0.5 -0.1,-0.4 -0.3,-0.4 -0.4,-0.2 -0.1,0 0.2,-0.4 0,-0.1 0,-0.3 -0.1,-0.2 0,-0.1 -0.4,-0.4 0,-0.4 -0.2,-0.2 -0.1,0 0.2,-0.4 0.5,-0.2 0.6,0 0.7,-0.2 0.5,-0.4 0.4,-0.7 1.4,0.2 0.5,0 0.4,-0.1 0.6,-0.3 0.3,-0.1 0.4,0 0.7,-0.8 0.2,-0.3 0.2,-0.4 0.4,-0.2 0.7,-0.1 0.4,-0.1 0.5,-0.4 0.3,0 0.7,0.1 0.3,0 0,0.3 0.3,0.2 0.4,0.4 0.4,0 0.1,-0.1 0.5,0.4 0,0.3 -0.2,0.4 0.2,0 2.4,-0.3 0.2,-0.1 0.3,-0.2 0.1,-0.3 0.1,-0.3 0.1,-0.4 0.3,-0.2 0.5,0.1 0.3,-0.1 0.2,-0.2 0.3,-0.1 0.2,0.1 0.2,0.1 0.9,-0.1 0.6,0.1 0,0.1 0.2,0.4 0.1,0.1 0.3,0.1 0.9,0.6 1.4,0.1 z"
     id="NLD3483"
     name="Noord-Brabant"
     inkscape:connector-curvature="0" />
  <path
     d="m 27.299996,29 0.2,0.2 0.6,0.3 0,0.2 -0.1,0.6 0.1,0.1 0.5,0.4 -0.1,0.2 0,0.1 -0.1,0.1 0,0.1 0.1,0.1 0.3,0.1 0.2,0.1 0.1,0 0.2,0.2 0.1,0.1 0.2,0.2 -0.1,0.1 0,0.1 0,0.3 -0.1,0 -0.2,0.2 0,0.2 -0.1,0.2 -0.1,0.1 0.4,0.2 0.1,0 0.1,-0.1 0.1,0 0.1,-0.1 0.1,-0.1 0,-0.2 0,-0.2 0.2,0 0.1,0.4 0,0.3 0,0.5 0.1,0.6 0.2,0.3 0.3,0.3 0.1,0.3 0.1,0.2 0,0.3 -0.1,0.1 -0.4,-0.1 -1.1,-0.6 -0.5,-0.1 -0.2,0 -0.2,0.2 -0.2,0.1 -0.1,0 -0.4,-0.1 -0.3,0 -0.3,0.3 -0.3,0.1 -0.8,-0.4 -0.2,0 -0.2,0.2 -0.3,0.1 -0.2,-0.1 -0.1,0 -0.3,-0.1 -0.1,-0.2 -0.2,-0.3 -0.2,-0.1 -0.1,0 -0.2,0 -0.1,0.1 -0.3,0.1 -0.1,0.1 -0.2,0.2 -0.1,0.1 -0.6,-0.1 -0.4,0.2 -0.4,0.4 -0.1,0.1 -0.3,0 -0.1,0.1 -0.3,-0.5 -0.4,-0.5 -0.1,-0.2 0,-0.1 0.2,0 0.2,-0.1 -0.1,-0.3 -0.6,0.1 -0.1,-0.2 0.5,-0.6 0.5,-0.3 0.1,-0.1 -0.6,0 -0.2,-0.8 -0.2,-0.1 -0.2,-0.1 0.4,-0.5 0.2,0 0.3,0.2 0.1,-0.1 0,-0.1 -0.1,-0.2 0,-0.3 0.1,-0.1 -0.7,-0.5 -0.3,-0.1 -0.1,-0.2 -0.2,-0.3 0.6,-0.2 0.3,-0.1 0.2,-0.3 0.3,-0.1 0.5,-0.1 0.2,-0.3 0.1,-0.1 0.1,0 0.3,0 0.3,-0.2 0.1,0 0.1,0.1 0.1,0.1 0.2,-0.1 0.6,0 -0.5,0.2 0,0.1 0,0.1 0.1,0.2 0.1,0.1 0.1,0.1 0.1,0.1 -0.3,0.3 -0.1,0.4 0.1,0.4 0.1,0.4 0.3,-0.1 0.3,-0.1 0.5,-0.1 0.7,0.1 0.3,-0.2 0,-0.2 0.2,-0.4 0.1,-0.2 0.2,-0.7 0.3,-0.4 0.1,-0.1 0.8,0 0.1,0 z"
     id="NLD3484"
     name="Utrecht"
     inkscape:connector-curvature="0" />
  <path
     d="m 19.699996,30.3 0.2,0.3 0.1,0.2 0.3,0.1 0.7,0.5 -0.1,0.1 0,0.3 0.1,0.2 0,0.1 -0.1,0.1 -0.3,-0.2 -0.2,0 -0.4,0.5 0.2,0.1 0.2,0.1 0.2,0.8 0.6,0 -0.1,0.1 -0.5,0.3 -0.5,0.6 0.1,0.2 0.6,-0.1 0.1,0.3 -0.2,0.1 -0.2,0 0,0.1 0.1,0.2 0.4,0.5 0.3,0.5 0.1,-0.1 0.3,0 0.1,-0.1 0.4,-0.4 0.4,-0.2 0.6,0.1 0.1,-0.1 0.2,-0.2 0.1,-0.1 0.3,-0.1 0.1,-0.1 0.2,0 0.1,0 0.2,0.1 0.2,0.3 0.1,0.2 0.3,0.1 0.1,0 -0.3,0.7 -0.1,0.1 -0.5,0.9 0.1,0.2 0,0.1 -0.2,0.1 -1,0.4 -0.4,0 0.1,0.2 0,0.2 0,0.2 -0.3,0 -0.7,-0.1 -0.3,0 -0.5,0.4 -0.4,0.1 -0.7,0.1 -0.4,0.2 -0.2,0.4 -0.2,0.3 -0.7,0.8 -0.4,0 -0.3,0.1 -0.6,0.3 -0.4,0.1 -0.5,0 -1.4,-0.2 -0.4,0.7 -0.5,0.4 -0.7,0.2 -0.6,0 -0.5,0.2 -0.3,-0.1 -0.3,-0.2 -0.3,-0.2 -0.2,0.2 -0.1,0.1 0,-0.1 0,-0.2 0.1,-0.2 0.1,-0.2 0.3,-0.1 0.4,-0.1 -0.1,-0.1 -0.4,-0.2 -0.9,-0.3 -0.2,-0.3 0,-0.7 -0.2999999,-0.4 -0.3,-0.3 -0.4,-0.3 -0.2,0.2 -0.3,0.1 -0.4,0 -0.2,0.1 -0.1,0.1 -0.2,0 -0.1,-0.6 0.4,-0.3 0.8,-0.2 0.1,-0.2 0.3,0 0.4,0.1 0.3999999,0.2 0.1,0 0.1,-0.1 0.2,-0.1 -0.1,-0.2 -0.3,-0.5 -0.1999999,-0.1 0,-0.2 0,-0.1 0.1999999,-0.3 -0.1,-0.3 -0.1999999,-0.9 -0.2,-0.3 0.1,-0.2 0.1,-0.1 0.5999999,0.1 0.5,-0.1 0.5,-0.3 1.8,-2.3 1.7,-2.4 1.2,-2.2 0.6,0.3 0.3,0.1 0.2,-0.2 0.3,0.1 -0.5,0.9 -0.1,0.2 0,0.2 0,0.2 -0.2,0.3 0,0.2 0.2,0 0.1,0.1 0.2,0.1 0.3,-0.1 0.5,-0.1 0.3,-0.1 0.6,-0.2 0.1,0.1 0,0.3 0.1,0.1 0.1,0.1 0.4,-0.3 z"
     id="NLD3485"
     name="Zuid-Holland"
     inkscape:connector-curvature="0" />
  <path
     d="m 27.299996,29 -0.1,0 -0.8,0 -0.1,0.1 -0.3,0.4 -0.2,0.7 -0.1,0.2 -0.2,0.4 0,0.2 -0.3,0.2 -0.7,-0.1 -0.5,0.1 -0.3,0.1 -0.3,0.1 -0.1,-0.4 -0.1,-0.4 0.1,-0.4 0.3,-0.3 -0.1,-0.1 -0.1,-0.1 -0.1,-0.1 -0.1,-0.2 0,-0.1 0,-0.1 0.5,-0.2 -0.6,0 -0.2,0.1 -0.1,-0.1 -0.1,-0.1 -0.1,0 -0.3,0.2 -0.3,0 -0.1,0 -0.1,0.1 -0.2,0.3 -0.5,0.1 -0.3,0.1 -0.2,0.3 -0.3,0.1 -0.6,0.2 -0.4,0.3 -0.1,-0.1 -0.1,-0.1 0,-0.3 -0.1,-0.1 -0.6,0.2 -0.3,0.1 -0.5,0.1 -0.3,0.1 -0.2,-0.1 -0.1,-0.1 -0.2,0 0,-0.2 0.2,-0.3 0,-0.2 0,-0.2 0.1,-0.2 0.5,-0.9 -0.3,-0.1 -0.2,0.2 -0.3,-0.1 -0.6,-0.3 0.1,-0.2 0.8,-2.4 0.1,-0.6 0,-0.1 0.3,-0.6 0.5,-4.2 0.3,-1.1 0,-0.3 0.1,-0.7 0.6,-1.5 0.1,-0.7 0,-0.4 0.1,-0.5 0.1,-0.5 0.1,-0.2 0.8,0.2 0.2,-0.2 0.1,0.2 -0.2,0.7 0.3,0.4 0.5,0.1 0.5,0 0.3,-0.2 0.6,-0.5 0.3,-0.1 0.5,0 0.5,-0.3 1.4,-1.2 0.1,0.4 -0.8,0.7 -0.6,0.4 -0.5,0.2 0.2,0.2 0.7,1.4 0.1,0.5 0,1.3 0.2,0.3 0.1,0.1 0.2,0.2 0.1,0.1 0.2,-0.1 0.2,-0.2 0.1,-0.1 0.2,0 0.2,0 0.7,0.3 0.1,0.2 0,0.2 0.1,0.3 0,0.2 -0.4,0.3 -0.2,0.1 -0.2,0.6 -0.2,0.2 -0.8,0.5 -0.2,0.1 -0.2,0 -0.2,-0.2 -0.1,-0.1 -0.4,-0.1 -0.5,0.1 -0.2,0.3 0.1,0.6 0.1,0.6 0.5,1 0.1,0.5 -0.3,0.3 0.1,0.1 0,0.2 -0.1,0 -0.3,0.2 0.2,0.1 0.1,0.2 0.1,0.2 0.2,0.1 -0.1,0.2 -0.1,0.2 -0.2,0.1 -0.1,0 -0.2,0.2 -0.1,0.4 -0.1,0.2 -0.2,-0.2 0,0.2 -0.1,-0.1 -0.1,0 -0.2,-0.1 0,0.2 -0.1,0 0,0.1 0.8,0.5 0.2,0.1 0.6,0.1 0.3,0.1 0.6,0.4 0.3,0.1 0.3,0.1 0.6,-0.1 0.2,0 1,0.7 z m -5.9,-18.1 0,0.1 0.2,0 -0.1,0.3 -0.1,0.4 -0.4,0.5 -0.6,0.5 -0.3,0.6 -0.5,0.2 -0.4,-0.2 -0.3,-0.6 0.1,-0.6 0.3,-0.6 0.3,-0.6 0.6,-0.5 0.3,-0.7 0.4,-0.5 0.4,0 0.1,0.3 -0.1,0.1 0,0.1 0.2,0.3 0.1,0.4 0,0.3 -0.2,0.2 z"
     id="NLD3486"
     name="Noord-Holland"
     inkscape:connector-curvature="0" />
  <path
     d="m -877.7,605.5 -0.1,0 -0.2,-0.1 0,-0.2 0.2,-0.1 0.1,0.1 0,0.1 0,0.2 z"
     id="NLD5147"
     name="Saba"
     inkscape:connector-curvature="0" />
  <path
     d="m -874,607.5 -0.2,0.1 -0.3,0 -0.1,-0.4 -0.1,-0.4 0.2,0.1 0.1,0.2 0.2,0 0.2,0.2 0,0.2 z"
     id="NLD5148"
     name="St. Eustatius"
     inkscape:connector-curvature="0" />
  <path
     d="m -943.8,681.9 -0.1,0.1 -0.1,0 -0.1,-0.1 -0.3,-0.6 -0.1,-0.2 0,-0.3 0.1,-0.4 0,-0.3 -0.1,-0.2 -0.2,-0.3 -0.2,-0.2 -0.7,-0.1 -0.3,-0.1 -0.2,-0.1 -0.1,-0.3 0.2,-0.2 -0.1,-0.1 0,-0.2 0.1,-0.1 0.2,-0.1 0.1,0 0.2,0.1 0.3,0.4 0.1,0.1 0.3,0 0.8,0.4 0.4,0.1 0.1,0 0.2,0.2 0.1,0.1 -0.2,0.1 -0.1,0.1 0.1,0.7 0,0.3 -0.1,0.1 -0.3,0 0,0.1 0,0.1 0.1,0.4 0,0.1 0,0.1 -0.1,0.2 0,0.1 z"
     id="NLD5149"
     name="Bonaire"
     inkscape:connector-curvature="0" />
  <path
     d="m 50.099996,16.8 -0.1,0.4 -0.1,0.7 -0.1,2.4 -0.1,0.7 -0.3,0.5 -0.4,-0.1 -0.2,-0.1 -0.7,0.1 -0.7,-0.2 -1.2,0 -0.5,0.1 -0.2,0.2 -0.2,-0.1 0,-0.2 0,-0.1 -0.1,-0.2 -1,-0.4 -0.2,0 -0.3,0.1 -0.7,0.3 -0.1,0.2 -0.1,0.1 0.1,0.6 -0.6,-0.2 -0.2,-0.1 0,0.1 -0.1,0.1 -0.1,0 -0.1,-0.1 -0.1,-0.1 -0.1,0 -0.1,0.1 -0.3,0.1 -0.2,-0.1 -0.1,-0.3 -0.1,-0.1 -0.2,-0.3 -0.2,-0.1 -0.1,-0.2 -0.1,0 -0.6,0 -0.1,0 -0.4,-0.3 -0.2,-0.1 -0.1,0 -0.2,0.2 -0.2,-0.1 -0.1,-0.1 -0.1,-0.1 0,-0.1 -0.5,-1.2 0.1,-0.2 0.4,-0.2 0.5,-0.4 0,-0.2 -0.1,-0.2 -0.1,-0.2 -0.1,-0.1 -0.7,-0.8 1.1,-0.8 0.4,-0.5 0.1,-0.1 0.2,-0.1 0.3,0 0.3,0 0.5,0.3 0.6,-0.4 0.1,-0.1 0.3,-0.6 0.1,-0.2 -0.2,-0.3 -0.7,-1 0,-0.2 -0.1,-0.3 0,-0.1 0,-0.2 -0.4,-0.1 -0.2,-0.2 -0.1,0 0.1,-0.3 0.2,0.1 0.1,-0.1 0.3,-0.4 0,-0.2 0.1,-0.1 0.1,-0.4 0.1,-0.1 0.1,-0.2 0.2,-0.3 0.1,-0.2 0.3,-0.1 0.5,-0.5 0.4,0.2 0.2,0.1 0.2,0 0.2,0.3 0.2,0.4 0.1,0.1 0.2,0.1 0.4,0.6 0.2,0.3 0,0.1 0.9,-0.3 0.4,0 0.2,0.2 0.4,0.5 0.6,0.6 0.6,0.6 0.9,1 0.6,0.8 0.7,0.8 0.1,0.1 0,0.1 -0.3,0.8 0.3,0.1 0.1,0.1 0.3,0.3 0,0.1 z"
     id="NLD894"
     name="Drenthe"
     inkscape:connector-curvature="0" />
  <path
     d="m 21.899996,8.4 -0.3,0.3 -0.4,-0.2 0.5,-0.8 0.9,-0.8 0.9,-0.5 0.7,0.1 0,0.2 -0.4,0 -0.2,0.1 -0.3,0.1 -1.1,1 -0.3,0.5 z m 18.2,2.9 -0.1,0.3 0.1,0 0.2,0.2 0.4,0.1 0,0.2 0,0.1 0.1,0.3 0,0.2 0.7,1 0.2,0.3 -0.1,0.2 -0.3,0.6 -0.1,0.1 -0.6,0.4 -0.5,-0.3 -0.3,0 -0.3,0 -0.2,0.1 -0.1,0.1 -0.4,0.5 -1.1,0.8 -0.6,0.3 -0.2,0 -0.2,0.1 -0.1,0 0,0.1 -0.2,0.3 -0.5,-0.1 -0.1,0 -0.1,-0.1 -0.2,-0.3 -0.1,0 0,0.1 -0.3,0 -0.1,0.1 -0.1,0.2 -0.1,0.1 -0.4,0.3 -0.2,0 -0.4,-0.1 -0.2,-0.1 -0.5,0.2 -0.1,-0.3 -0.3,-0.4 -0.1,0 -0.3,0 -0.1,-0.1 -1,-0.3 -0.2,0 -0.2,0.1 -0.3,0.2 -0.1,0.1 -0.3,0 -0.2,0 -0.3,-0.3 -0.1,0 -0.9,0 -0.4,-0.1 -0.3,-0.3 -0.1,-0.1 -0.1,-0.1 -0.1,-0.1 0,-0.3 0.1,0 0.1,-0.1 0.1,-0.2 0.2,-0.1 0.1,-0.2 -0.1,-0.4 0.2,-0.2 0,-0.4 0,-0.3 -0.2,-0.3 0.1,-0.2 0,-0.3 0,-0.3 -0.1,-0.1 -0.2,-0.2 -0.1,-0.2 -0.1,-0.5 -1.1,0.8 -1.3,1.1 -0.1,-0.4 1.3,-1.2 0.2,-0.2 0.2,-0.2 0.6,-0.1 0.3,-0.2 0.3,-0.6 0.3,-1.5 0.3,-0.6 0.5,-0.6 0.2,-0.2 0.5,-0.2 0.2,-0.3 0.3,-0.3 0.2,-0.2 0.3,-0.1 0.6,-0.1 0.5,-0.4 2.1,-0.9 0.4,-0.3 0.3,-0.1 0.9,-0.4 1.3,-0.1 1.4,0 -0.1,0.3 -0.1,0.2 0.2,0.5 0.1,0.1 0.3,0.1 0.1,0 0.1,0.2 0.1,0 0.1,0 0.2,0 0.2,0 0,0.1 0.1,0.1 -0.1,0.3 0,0.2 0.2,0.1 -0.1,0.1 -0.2,0.2 -0.2,0.2 0,0.1 -0.1,0.3 -0.2,0.3 -0.1,0.3 0,0.2 0.1,0.2 -0.1,0.2 -0.5,0.6 -0.1,0.3 -0.1,0.5 0.1,0.4 0.1,0.2 0.2,0.2 0.1,0 0.5,0 0.3,0.1 0.5,0.3 0.1,0.1 z m -11.7,-6.9 -0.6,0.2 -0.4,0.1 -1.9,0.9 -0.3,-0.1 -0.2,-0.3 0.1,-0.4 0.8,-0.2 0.2,-0.2 0.3,0 1.8,-0.4 0.4,-0.3 1.9,-0.4 -0.3,0.4 -0.4,0.2 -0.7,0 0,0.3 -0.1,0.1 -0.6,0.1 z m 6.4,-1.5 0.6,0.3 -1.3,0.3 -1.4,0 -0.3,0 -0.7,0.3 -0.3,0 -0.2,-0.4 0.1,-0.3 0.2,-0.2 0.2,0.1 3.1,-0.1 z m 3.2,0.1 -0.3,0.3 0,-0.1 0,-0.1 0,-0.1 -0.1,-0.3 0.3,-0.3 0.5,-0.2 0.4,-0.1 1.3,-0.1 0.4,0.1 0,0.1 -0.2,0 -2.3,0.8 z"
     id="NLD895"
     name="Friesland"
     inkscape:connector-curvature="0" />
  <path
     d="m 46.199996,32.7 -0.1,0 -0.2,0.1 -0.2,0.3 -0.1,0.1 -0.1,0.3 -0.1,0.1 -0.2,0.1 -0.1,0 -0.1,0 -0.1,0.3 0,0.3 0.2,0.1 0.3,0.1 0.9,0.5 0.3,0.4 0.1,0.1 0,0.1 0,0.3 -0.1,0 -0.1,0.1 -0.1,0.1 -0.3,0.5 -0.3,0.4 -0.4,0.2 -1.1,0 -1.3,0.5 -0.7,0.5 -0.2,0.1 -0.3,0 -0.8,-0.3 0.1,0.5 -0.1,0.2 -0.5,0.2 0,-0.4 -0.2,-0.1 -0.5,-0.1 -0.1,0 -0.1,-0.3 -0.1,-0.1 -0.1,0 -0.4,0.1 -0.5,-0.2 -0.4,-0.4 -0.4,-0.2 -0.5,0.3 0.2,0.1 0.5,0.5 0.1,0.3 -0.5,-0.1 -0.4,-0.1 -0.5,0.1 -0.2,0.1 -0.3,0.2 -0.3,0.1 -0.5,0.1 -0.2,0.2 -0.1,0.2 0.3,0.2 0.2,0.4 0,0.4 -0.2,0.3 -0.1,0 -0.3,-0.2 -0.1,-0.1 -0.3,-0.4 -0.1,0 -0.1,0 -0.1,0.1 0,0.3 -1.4,-0.1 -0.9,-0.6 -0.3,-0.1 -0.1,-0.1 -0.2,-0.4 0,-0.1 -0.6,-0.1 -0.9,0.1 -0.2,-0.1 -0.2,-0.1 -0.3,0.1 -0.2,0.2 -0.3,0.1 -0.5,-0.1 -0.3,0.2 -0.1,0.4 -0.1,0.3 -0.1,0.3 -0.3,0.2 -0.2,0.1 -2.4,0.3 -0.2,0 0.2,-0.4 0,-0.3 -0.5,-0.4 -0.1,0.1 -0.4,0 -0.4,-0.4 -0.3,-0.2 0,-0.3 0,-0.2 0,-0.2 -0.1,-0.2 0.4,0 1,-0.4 0.2,-0.1 0,-0.1 -0.1,-0.2 0.5,-0.9 0.1,-0.1 0.3,-0.7 0.2,0.1 0.3,-0.1 0.2,-0.2 0.2,0 0.8,0.4 0.3,-0.1 0.3,-0.3 0.3,0 0.4,0.1 0.1,0 0.2,-0.1 0.2,-0.2 0.2,0 0.5,0.1 1.1,0.6 0.4,0.1 0.1,-0.1 0,-0.3 -0.1,-0.2 -0.1,-0.3 -0.3,-0.3 -0.2,-0.3 -0.1,-0.6 0,-0.5 0,-0.3 -0.1,-0.4 -0.2,0 0,0.2 0,0.2 -0.1,0.1 -0.1,0.1 -0.1,0 -0.1,0.1 -0.1,0 -0.4,-0.2 0.1,-0.1 0.1,-0.2 0,-0.2 0.2,-0.2 0.1,0 0,-0.3 0,-0.1 0.1,-0.1 -0.2,-0.2 -0.1,-0.1 -0.2,-0.2 -0.1,0 -0.2,-0.1 -0.3,-0.1 -0.1,-0.1 0,-0.1 0.1,-0.1 0,-0.1 0.1,-0.2 -0.5,-0.4 -0.1,-0.1 0.1,-0.6 0,-0.2 0.6,0 1.1,-0.2 0.2,-0.2 0.4,-1 0.6,-0.7 0.4,-0.4 0.8,-0.2 0.4,-0.2 0.5,-0.4 0.3,-0.3 0.5,-0.7 0.2,-0.5 0.2,-0.5 0,-0.4 0.2,0 0.2,0.3 0.3,0.5 0.1,0.1 0.1,0 0.4,-0.1 0.4,-0.4 0.4,-0.2 0.2,0.1 0.1,0.2 0.1,0.2 0.3,0.2 0.1,0.1 0,0.1 0.2,0.4 0.1,0.2 0.2,0.4 0.1,0.2 0,0.2 -0.2,0.5 -0.5,0.2 0,0.2 0,0.1 -0.1,0.2 -0.1,0.4 0,0.2 0,0.1 0.2,0.3 0.3,0.1 0.2,0.6 0,0.3 0.2,0.1 0.1,0.1 0,0.1 0,0.2 0,0.1 0.1,0.1 0.1,0 0.1,-0.2 0.2,-0.1 0.1,0 0.9,0.2 0.8,0 0.2,0 0.2,-0.2 0.4,-0.2 0.4,0.1 0.1,0.1 0.6,1 0.4,0.3 0.3,0 0.5,0 0.4,0 0.2,0 0,0.1 0,0.2 0.1,0 0.5,-0.1 0.1,0 0.2,0.1 0,0.1 0,0.4 -0.1,0.3 1.3,0.3 0.2,0.1 z"
     id="NLD896"
     name="Gelderland"
     inkscape:connector-curvature="0" />
  <path
     d="m 50.099996,16.8 0,-0.1 -0.3,-0.3 -0.1,-0.1 -0.3,-0.1 0.3,-0.8 0,-0.1 -0.1,-0.1 -0.7,-0.8 -0.6,-0.8 -0.9,-1 -0.6,-0.6 -0.6,-0.6 -0.4,-0.5 -0.2,-0.2 -0.4,0 -0.9,0.3 0,-0.1 -0.2,-0.3 -0.4,-0.6 -0.2,-0.1 -0.1,-0.1 -0.2,-0.4 -0.2,-0.3 -0.2,0 -0.2,-0.1 -0.4,-0.2 -0.5,0.5 -0.3,0.1 -0.1,0.2 -0.2,0.3 -0.1,0.2 -0.1,0.1 -0.1,0.4 -0.1,0.1 0,0.2 -0.3,0.4 -0.1,0.1 -0.2,-0.1 -0.1,-0.1 -0.5,-0.3 -0.3,-0.1 -0.5,0 -0.1,0 -0.2,-0.2 -0.1,-0.2 -0.1,-0.4 0.1,-0.5 0.1,-0.3 0.5,-0.6 0.1,-0.2 -0.1,-0.2 0,-0.2 0.1,-0.3 0.2,-0.3 0.1,-0.3 0,-0.1 0.2,-0.2 0.2,-0.2 0.1,-0.1 -0.2,-0.1 0,-0.2 0.1,-0.3 -0.1,-0.1 0,-0.1 -0.2,0 -0.2,0 -0.1,0 -0.1,0 -0.1,-0.2 -0.1,0 -0.3,-0.1 -0.1,-0.1 -0.2,-0.5 0.1,-0.2 0.1,-0.3 1.2,-0.1 0.1,0.1 0.3,0.2 0.1,0 0.1,0 0.3,-0.3 2,-0.5 3.1,-0.5 1.3,0.2 0.3,0.1 0.2,0.3 0.5,1.8 0.4,0.2 0.1,0.2 0.1,0.1 0.4,0.2 0.5,0.3 0.3,-0.1 0.1,0.1 0.1,0.1 0.2,-0.1 0.1,-0.1 0.1,0 0,0.2 -0.1,0.1 0,0.1 0,0.2 0,0.4 0.4,0.2 1,0.2 0.1,0 0.1,0.7 0,0.3 0,0.4 -0.1,0.3 -0.2,0.5 -0.1,0.2 0.1,0.3 0,0.1 0.1,0.1 0,0.2 0.1,1.6 0,0.8 -0.1,0.7 -0.3,0.7 -1.1,1.7 -0.1,0.3 z m -8.1,-15.8 0.7,0.3 -0.1,0 -0.1,0.2 -0.4,-0.2 -0.3,-0.1 0,-0.2 0.2,0 z"
     id="NLD897"
     name="Groningen"
     inkscape:connector-curvature="0" />
  <path
     d="m 35.199996,40.5 0,0.3 0.1,0 0.4,0 0.1,0.1 0.3,0.2 0.2,0.1 -0.2,0.6 0.3,0.4 0.9,0.4 -0.2,0.5 0,0.3 0,0.3 0.9,1.2 0.5,0.6 0.1,0.7 0.1,0.4 -0.1,0.4 -0.1,0.5 0,0.3 0.2,0.3 -0.1,0.2 0,0.4 -0.1,0.3 -0.1,0.2 -0.3,0.2 -0.2,0.2 -0.6,1.2 -0.3,0.3 -0.2,0.3 -0.1,0.4 0,0.5 0.1,0.4 0.3,0.1 0.7,-0.4 0.3,0.1 -0.2,0 -0.3,0.3 0.3,0.3 -0.2,0.2 -0.7,0.4 -1.2,1 -0.2,0.2 -0.3,0.5 -0.1,0.2 -0.3,0 -0.2,-0.1 -0.1,-0.2 -0.2,-0.1 -0.4,0.2 0.1,0.4 0.2,0.7 0,0.5 0.2,-0.1 0.3,-0.1 0.2,-0.1 0.2,0 0.4,0.2 0.4,-0.1 0.1,0.1 -0.1,0.2 -0.1,0.2 0,0.3 0.1,0.1 0.1,0.1 0.3,0.2 0.4,0.2 0,0.1 -0.1,0.1 0,0.1 0.1,0.5 0,0.1 -0.1,0.2 -0.1,0.2 -0.3,0 -0.2,0.1 -0.1,0.2 0,0.4 0,0.2 -0.2,0.2 -0.2,0 0,0.2 0.1,0.2 0.2,0.1 0,0.1 0,0.3 -0.3,0 -0.9,0 -0.3,-0.1 -1.1,0 -0.2,-0.1 -0.3,-0.3 -0.1,0 -0.1,0.1 -0.2,0.3 -0.1,0 -0.2,0 -0.2,-0.1 0.1,-0.5 0,-0.3 -0.2,0 -0.3,-0.2 -0.3,-0.2 -0.2,-0.3 0,-0.5 0.9,-1 0.4,-0.1 0,-0.1 0.2,-0.3 0.2,-0.4 0.2,-0.3 -0.2,-0.1 -0.1,0 -0.3,0.1 0.5,-0.8 0.2,-0.5 -0.1,-0.3 0,-0.3 0.1,-0.2 0.1,0 0.1,0.1 0.1,-0.1 0.1,-0.2 0.1,-0.3 -0.1,-0.1 0,-0.2 0.2,0 0.1,0 0.1,0 0.1,-0.1 -0.3,-0.3 0.1,-0.3 0.2,-0.2 -0.1,-0.1 -0.1,-0.2 -0.2,-0.1 -0.4,0.1 -0.2,-0.1 -0.3,-0.4 -0.2,-0.1 -0.1,0 -0.6,0.1 -0.2,0 -0.2,-0.1 -0.1,-0.2 -0.2,-0.1 -0.7,-0.2 -0.2,-0.2 0.2,-0.1 0.3,-0.1 0.1,0 0.1,0 0.1,-0.1 0.1,-0.2 0.1,-0.7 0.2,-0.4 0.1,-0.1 0.3,-0.4 1.3,-0.4 0.9,-0.3 0.4,-0.1 0.8,-0.7 -0.3,-0.6 -0.5,-0.7 -0.3,-1.2 -0.2,-1.3 0.5,0 0.5,0.2 0.2,0 0.3,-0.1 0.7,-0.2 0.1,0 0.3,0.3 0.2,-0.2 0,-0.2 0,-0.2 -0.2,-0.6 -0.1,-0.2 -0.2,-0.4 -0.2,-0.1 -0.1,-0.1 -0.1,-0.1 0.1,-0.2 -0.2,-0.2 -0.1,-0.8 -0.3,-0.2 -0.5,0 -0.2,-0.2 -0.1,-0.2 0,-0.3 -0.2,-0.1 0,-0.3 0.1,-0.1 0.1,0 0.1,0 0.3,0.4 0.1,0.1 0.3,0.2 z"
     id="NLD898"
     name="Limburg"
     inkscape:connector-curvature="0" />
  <path
     d="m 45.499996,21.5 -0.3,0.2 0.2,0.2 -0.1,0.2 0,0.2 0,0.1 0.1,0.2 0.4,0.3 -0.7,0.4 -0.3,0 0.2,0.4 0.1,0.4 0,0.3 0.1,0.4 0.2,0.3 0.4,0.1 1,0.2 0.7,0.3 0.4,0 0.3,0 0.3,-0.1 0.2,-0.1 0,-0.2 0.1,0 0.8,1.3 0.2,0.6 -0.1,0.8 -0.3,0.6 -0.1,0.3 0,0.4 0.2,0.5 0.1,0.2 -0.1,0.1 -0.6,0.3 -0.1,0.2 -0.3,0.5 -0.3,0.2 -0.5,0.3 -0.3,0.3 -0.3,0.6 -0.2,0.1 -0.7,0.1 -0.2,-0.1 -1.3,-0.3 0.1,-0.3 0,-0.4 0,-0.1 -0.2,-0.1 -0.1,0 -0.5,0.1 -0.1,0 0,-0.2 0,-0.1 -0.2,0 -0.4,0 -0.5,0 -0.3,0 -0.4,-0.3 -0.6,-1 -0.1,-0.1 -0.4,-0.1 -0.4,0.2 -0.2,0.2 -0.2,0 -0.8,0 -0.9,-0.2 -0.1,0 -0.2,0.1 -0.1,0.2 -0.1,0 -0.1,-0.1 0,-0.1 0,-0.2 0,-0.1 -0.1,-0.1 -0.2,-0.1 0,-0.3 -0.2,-0.6 -0.3,-0.1 -0.2,-0.3 0,-0.1 0,-0.2 0.1,-0.4 0.1,-0.2 0,-0.1 0,-0.2 0.5,-0.2 0.2,-0.5 0,-0.2 -0.1,-0.2 -0.2,-0.4 -0.1,-0.2 -0.2,-0.4 0,-0.1 -0.1,-0.1 -0.3,-0.2 -0.1,-0.2 -0.1,-0.2 -0.2,-0.1 -0.4,0.2 -0.4,0.4 -0.4,0.1 -0.1,0 -0.1,-0.1 -0.3,-0.5 -0.2,-0.3 -0.2,0 0,-0.4 -0.2,-0.8 -0.1,-0.4 -0.1,-0.2 0.7,-0.4 0.2,0 0,0.1 0.3,0 0.1,0 0.6,-0.2 0.4,-0.2 -0.2,-0.4 -0.3,-0.1 -0.5,-0.2 -0.2,-0.1 0.1,-0.1 0.1,-0.1 0.1,-0.2 -0.1,-0.5 -0.2,-0.6 -0.1,-0.1 -0.2,-0.2 -0.6,-0.5 -1,-0.6 0.5,-0.2 0.2,0.1 0.4,0.1 0.2,0 0.4,-0.3 0.1,-0.1 0.1,-0.2 0.1,-0.1 0.3,0 0,-0.1 0.1,0 0.2,0.3 0.1,0.1 0.1,0 0.5,0.1 0.2,-0.3 0,-0.1 0.1,0 0.2,-0.1 0.2,0 0.6,-0.3 0.7,0.8 0.1,0.1 0.1,0.2 0.1,0.2 0,0.2 -0.5,0.4 -0.4,0.2 -0.1,0.2 0.5,1.2 0,0.1 0.1,0.1 0.1,0.1 0.2,0.1 0.2,-0.2 0.1,0 0.2,0.1 0.4,0.3 0.1,0 0.6,0 0.1,0 0.1,0.2 0.2,0.1 0.2,0.3 0.1,0.1 0.1,0.3 0.2,0.1 0.3,-0.1 0.1,-0.1 0.1,0 0.1,0.1 0.1,0.1 0.1,0 0.1,-0.1 0,-0.1 0.2,0.1 0.6,0.2 -0.1,-0.6 0.1,-0.1 0.1,-0.2 0.7,-0.3 0.3,-0.1 0.2,0 1,0.4 0.1,0.2 0,0.1 0,0.2 0.2,0.1 z"
     id="NLD899"
     name="Overijssel"
     inkscape:connector-curvature="0" />
  <path
     d="m 33.899996,22.7 0.2,1 0,0.4 -0.2,0.6 -0.2,0.4 -0.3,0.4 -0.3,0.4 -0.4,0.1 -0.4,0.1 -0.6,0.3 -0.3,0 -0.2,0.1 -0.3,0.4 -0.2,0.1 -0.2,0.1 -0.2,0 -0.3,0.2 0.1,0.7 -0.1,0.5 -0.3,0.4 -0.5,0.2 -0.8,0 -0.4,-0.1 -0.8,-0.6 -0.4,-0.3 -0.9,-0.3 -0.2,-0.1 -0.6,0.1 -0.3,-0.2 -0.1,-0.2 0,-0.3 -0.2,-0.4 0.3,-0.1 0.3,-0.4 0.9,-0.4 0.5,-0.6 1,-0.4 0.6,-0.5 0.5,-0.2 0.2,-0.2 0.3,-0.8 0.1,-0.1 0.3,0 0.1,0 0.6,-0.6 0.2,-0.1 0.8,-0.3 0.2,-0.2 0.4,0.4 2.1,0.5 z m -0.8,-5.1 1,0.6 0.6,0.5 0.2,0.2 0.1,0.1 0.2,0.6 0.1,0.5 -0.1,0.2 -0.1,0.1 -0.1,0.1 0.2,0.1 0.5,0.2 0.3,0.1 0.2,0.4 -0.4,0.2 -0.6,0.2 -0.1,0 -0.3,0 0,-0.1 -0.2,0 -0.7,0.4 -0.2,-0.2 -0.2,0 -1.8,0.1 -0.2,-0.1 -0.1,-0.1 -0.3,-0.6 -0.2,-0.2 -0.2,-0.3 0,-0.9 0,-0.9 0.2,-0.5 0.2,-0.6 0.3,-0.4 0.4,-0.3 0.4,-0.1 0.1,0 0.3,0 0.1,0 0.3,0.4 0.1,0.3 z"
     id="NLD902"
     name="Flevoland"
     inkscape:connector-curvature="0" />
  <path
     d="m 12.499996,48.5 0,0.1 -0.1,0.5 -0.1,0.2 -0.5,0.7 -0.6,0.5 -1.6999999,0.8 -0.6,0.5 -0.3,0.1 -1.5,0 -0.2,0 -0.2,-0.3 0,-0.2 0,-0.2 -0.1,-0.3 -0.2,-0.2 -1.6,-0.5 -0.4,-0.1 -0.3,0.1 -0.5,0.1 -0.2,0 -0.2,0 -0.2,0.2 0,0.2 0,0.3 0,0.2 -0.6,0.1 -0.4,-0.1 -0.4,-0.1 -0.4,-0.4 -0.19999999,-0.5 0.1,-0.5 0,-0.5 -0.1,-0.9 2.09999999,-0.6 0.2,-0.2 0.2,0 0.9,0.5 1.3,0.4 0.4,0.4 0.3,0.1 0.5,0 0.5,0.1 0.3,0 1.3,-0.6 0.2,-0.2 0.1,-0.4 0.1,-0.2 0.3,0 0.3,0.1 0.1999999,0.2 0,0.1 0.2,0.3 0.1,0.1 0.2,0.1 0.3,0 0.1,0.1 0.1,0.1 0.5,0 0.2,-0.3 0.1,-0.1 0.2,0 0.3,0.2 z m 0.1,-3.2 -0.4,-0.1 -0.6,-0.2 -0.2,-0.1 -0.4,0.1 -0.2,0 -0.3,-0.2 -1.0999999,-1 0.6999999,-0.4 0.4,0 1.2,0 0.3,0.1 0.3,0.3 0.4,0.4 0,0.1 0.1,0.2 0,0.3 0,0.1 -0.2,0.4 z m 0.5,1.6 0,0.3 0,0.1 -0.1,0.1 0.1,0.3 0,0.4 0.1,0.1 0.1,0.1 0,0.2 -0.3,0 0,-0.1 -0.1,-0.2 -0.1,-0.3 0,-0.2 0,-0.2 -0.1,-0.1 -0.2,0.2 -0.3,0.1 -1.1,0 -0.3,-0.1 -0.3,-0.2 -0.6999999,-0.6 -0.2,-0.1 -0.6,-0.1 -0.2,0.2 -0.4,0.7 -0.1,0.2 -0.2,0.1 -0.5,0.1 -0.2,0.1 -0.1,0 -0.1,-0.1 -0.4,-0.3 -0.8,-0.4 -0.5,-0.5 -0.2,-0.1 -0.6,0.3 -0.3,0 -0.7,-0.2 -0.2,-0.1 -0.2,-0.3 -0.2,-0.4 -0.2,-0.2 -0.4,-0.4 -0.2,-0.2 0,-0.4 0.1,-0.2 1.4,-0.8 3.5,-0.4 0.3,0 0.2,0.2 0.2,0.2 0.2,0.2 0.1,0.3 -0.1,0.1 -0.2,0.1 -0.1,0.1 0,0.2 1.3,0.1 0.6,0.2 0.4999999,0.5 0.2,0.4 0.3,0.7 0.2,0.3 0.3,0 0.7,-0.1 0.2,0.2 0.3,-0.1 0.4,0 0.2,0 z m -0.9,-4.1 -0.2,0.4 -0.5,0 -0.1,-0.1 -0.2,0 -0.1,-0.2 0,-0.2 -0.1,-0.1 0.1,-0.1 0.2,-0.2 0.3,0.2 0.3,0.2 0.3,0.1 z m -2.3999999,-1.4 0.1,0.2 0.1999999,0.1 0.5,0.2 0.3,0.2 0,0.3 -0.1,0.2 -0.3,0.2 -0.2,0.1 -0.9999999,0.2 -0.2,0 -0.5,-0.2 -0.3,-0.2 -0.1,-0.3 -0.1,-0.3 -0.2,-0.1 -0.6,-0.3 -0.1,-0.2 -0.1,0 -0.2,-0.1 -0.3,0.4 -0.1,0.1 -0.6,0 -0.3,0 -0.1,-0.3 0,-0.7 0.5,-0.3 1.1,-0.2 0.2,0 0.2,0.1 1.3,0.1 0.3,0 0.2,0.2 0.5,0.6 z"
     id="NLD903"
     name="Zeeland"
     inkscape:connector-curvature="0" />
  <circle
     cx="21.799995"
     cy="44.599998"
     id="0"
     r="0" />
  <circle
     cx="37.399971"
     cy="49.299999"
     id="1"
     r="0" />
  <circle
     cx="37.299995"
     cy="18.1"
     id="2"
     r="0" />
</svg>
